<?xml version="1.0" encoding="UTF-8"?>
<svg xmlns="http://www.w3.org/2000/svg" xmlns:xlink="http://www.w3.org/1999/xlink" viewBox="0 0 1040 500">
  <defs>
    <style>
      .cls-1 {
        stroke: #9f4c68;
      }

      .cls-1, .cls-2, .cls-3, .cls-4, .cls-5, .cls-6, .cls-7, .cls-8, .cls-9 {
        fill: none;
      }

      .cls-1, .cls-2, .cls-4, .cls-5, .cls-7, .cls-8, .cls-9 {
        stroke-linecap: round;
        stroke-linejoin: round;
      }

      .cls-2 {
        stroke: #0a754e;
      }

      .cls-3 {
        stroke: #ad5200;
        stroke-miterlimit: 10;
      }

      .cls-10 {
        fill: #ff8500;
      }

      .cls-4 {
        stroke: #1a946b;
      }

      .cls-11 {
        fill: #744a72;
      }

      .cls-5 {
        stroke: #00a87d;
      }

      .cls-5, .cls-12 {
        mix-blend-mode: multiply;
        opacity: .3;
      }

      .cls-13 {
        fill: #e6f3ec;
      }

      .cls-14 {
        fill: #268b11;
      }

      .cls-15 {
        fill: #fefbf2;
      }

      .cls-16 {
        fill: #ea5c3a;
      }

      .cls-7 {
        stroke: #aa280e;
      }

      .cls-17 {
        fill: #036939;
      }

      .cls-18 {
        clip-path: url(#clippath-1);
      }

      .cls-19 {
        isolation: isolate;
      }

      .cls-20 {
        fill: #bb5879;
      }

      .cls-21 {
        fill: #ffb749;
      }

      .cls-8 {
        stroke: #b76a06;
      }

      .cls-9 {
        stroke: #186004;
      }

      .cls-22 {
        fill: #639d46;
      }

      .cls-12, .cls-23 {
        fill: #00a87d;
      }

      .cls-24 {
        fill: #fba933;
      }

      .cls-25 {
        clip-path: url(#clippath);
      }
    </style>
    <clipPath id="clippath">
      <rect class="cls-6" width="1040" height="500"/>
    </clipPath>
    <clipPath id="clippath-1">
      <rect class="cls-6" width="1040" height="500"/>
    </clipPath>
  </defs>
  <g class="cls-19">
    <g id="Capa_2" data-name="Capa 2">
      <g id="BACKGROUND">
        <rect class="cls-15" width="1040" height="500"/>
        <path class="cls-13" d="M316.68,143.66c-29.48,27.17-51.44,62.47-62.15,101.55-18.89,68.9,4.53,143.51,76.04,169.72,65.25,23.91,122.56-14.96,184.89-28.88,63.2-14.12,123.85,16.56,186.06,6.42,41.72-6.8,74.23-42.83,84.82-82.68,37.95-142.81-132.78-219.95-246.85-229.86-78.22-6.8-163.47,9.04-222.81,63.73Z"/>
      </g>
      <g id="OBJECTS">
        <g class="cls-25">
          <g>
            <path class="cls-21" d="M91.63,55.99c.78,4.08,2.08,8.32,5.18,11.08,1.94,1.73,4.41,2.72,6.85,3.63,4.08,1.54,8.26,2.97,12.61,3.33,23.48,1.92,40.42-33.28,18.49-46.7-20.79-12.72-47.59,5.29-43.13,28.65Z"/>
            <path class="cls-16" d="M998.56,437.2c.72,3.79,1.93,7.73,4.82,10.3,1.8,1.6,4.1,2.52,6.36,3.37,3.79,1.43,7.67,2.76,11.71,3.09,21.82,1.78,37.55-30.92,17.18-43.38-19.32-11.82-44.21,4.91-40.07,26.62Z"/>
            <path class="cls-14" d="M142.83,357.29c2.15.49,4.5.75,6.5-.17,1.25-.58,2.26-1.57,3.22-2.56,1.62-1.66,3.2-3.39,4.3-5.44,5.92-11.03-7.64-26.76-18.82-18.92-10.61,7.43-7.53,24.31,4.8,27.1Z"/>
            <path class="cls-14" d="M859.84,70.3c2.15.49,4.5.75,6.5-.17,1.25-.58,2.26-1.57,3.22-2.56,1.62-1.66,3.2-3.39,4.3-5.44,5.92-11.03-7.64-26.76-18.82-18.92-10.61,7.43-7.53,24.31,4.8,27.1Z"/>
            <path class="cls-12" d="M145.42,499.12c.78,4.08,2.08,8.32,5.18,11.08,1.94,1.73,4.41,2.72,6.85,3.63,4.08,1.54,8.26,2.97,12.61,3.33,23.48,1.92,40.42-33.28,18.49-46.7-20.79-12.72-47.59,5.29-43.13,28.65Z"/>
            <path class="cls-10" d="M961.65,293.77c.23,1.18.6,2.41,1.5,3.21.56.5,1.28.79,1.98,1.05,1.18.44,2.39.86,3.65.96,6.8.56,11.71-9.64,5.36-13.52-6.02-3.68-13.78,1.53-12.49,8.3Z"/>
            <path class="cls-12" d="M44.53,374.62c.23,1.18.6,2.41,1.5,3.21.56.5,1.28.79,1.98,1.05,1.18.44,2.39.86,3.65.96,6.8.56,11.71-9.64,5.36-13.52-6.02-3.68-13.78,1.53-12.49,8.3Z"/>
            <path class="cls-12" d="M953.86,127.37c.23,1.18.6,2.41,1.5,3.21.56.5,1.28.79,1.98,1.05,1.18.44,2.39.86,3.65.96,6.8.56,11.71-9.64,5.36-13.52-6.02-3.68-13.78,1.53-12.49,8.3Z"/>
            <path class="cls-12" d="M867.05,367.24c.23,1.18.6,2.41,1.5,3.21.56.5,1.28.79,1.98,1.05,1.18.44,2.39.86,3.65.96,6.8.56,11.71-9.64,5.36-13.52-6.02-3.68-13.78,1.53-12.49,8.3Z"/>
            <path class="cls-16" d="M52.32,239.9c.23,1.18.6,2.41,1.5,3.21.56.5,1.28.79,1.98,1.05,1.18.45,2.39.86,3.65.96,6.8.56,11.71-9.64,5.36-13.52-6.02-3.68-13.78,1.53-12.49,8.3Z"/>
          </g>
        </g>
        <g class="cls-18">
          <g>
            <path class="cls-5" d="M252.35-13.26c10.84,16.97,22.67,33.34,35.74,48.66,37.46,43.89,85.77,79.14,140.46,97.55,54.69,18.41,115.78,19.33,169.69-1.25,68.4-26.11,119.69-83.2,181.67-122.19,22.9-14.41,48.37-26.63,75.42-27.07"/>
            <path class="cls-5" d="M1066.73,126.76c-1.3,14.43-9.63,27.16-18.07,38.93-21.65,30.19-46.7,59.4-79.86,76.16-45.99,23.24-100.27,19.33-151.46,25.18-64.97,7.42-129.14,32.47-176.43,77.64-47.29,45.17-75.87,111.63-68.02,176.56"/>
            <path class="cls-5" d="M-29.13,168.62c90.62-12.22,187.76-25.09,274,13.82,75.62,34.12,131.23,112.24,120.39,197.32-.11.86-.23,1.72-.34,2.58-6.69,47.03-32.52,90.72-33.02,138.63"/>
          </g>
        </g>
        <g>
          <g>
            <path class="cls-20" d="M232.18,169.4c-7.01-3.8-16.15-1.93-22.34,3.09-6.19,5.02-9.8,12.63-11.72,20.37-6.1,24.57,4.41,52.4,25.24,66.8,25.53,17.65,61.07,14.71,86.86,31.98-4.59-16.19.39-33.31,2.47-50.01,2.31-18.62.91-37.69-4.1-55.77-4.46-16.11-13.02-32.68-28.38-39.25-18.5-7.92-42.69,4.17-48.01,22.8Z"/>
            <path class="cls-1" d="M268.41,275.95c5.17-10.77,14.1-19.69,24.87-24.84"/>
            <path class="cls-1" d="M311.46,196.43c-21.73,2.9-41.72,16.73-52.09,36.03"/>
            <path class="cls-1" d="M207.81,243.31c10.33-22.82,29.95-41.27,53.37-50.18"/>
            <path class="cls-1" d="M238.21,185.89c14.59-15.75,34.71-26.27,55.97-29.27"/>
          </g>
          <g>
            <path class="cls-23" d="M203.64,139.07c-7.29,1.91-15.49-.1-21.07-5.17,3.91-2.66,8.87-3.74,13.53-2.93-8.62-2.78-16.63-7.42-23.33-13.51-2.53-2.3-4.97-4.96-5.79-8.28-.82-3.32.52-7.39,3.72-8.61,2.9-1.1,6.08.39,8.82,1.86,4.84,2.58,9.69,5.17,14.53,7.75-7.43-10.77-13.19-22.7-17.01-35.22-1.35-4.45-1.55-10.77,2.88-12.16,1.49-.47,3.14-.15,4.57.49,4.28,1.91,6.84,6.29,9,10.45,5.6,10.79,10.46,21.97,14.51,33.43-.4-6.06-.29-12.15.31-18.19.26-2.62.93-5.69,3.35-6.73,3.73-1.61,7.07,3,8.26,6.89,2.71,8.92,3.45,18.43,2.15,27.66.89-2.93,2.65-5.6,5-7.58,4.35,10.24,3.43,22.56-2.37,32.05-.78,1.27-1.71,2.55-3.08,3.11-1.74.72-3.72.12-5.5-.48-4.77-1.61-9.55-3.23-12.47-4.82Z"/>
            <path class="cls-2" d="M192.89,99.3c17.57,20.3,31.11,44.08,39.6,69.55"/>
          </g>
          <g>
            <path class="cls-17" d="M249.47,127.11c-3.18-4.46-5.49-9.53-6.76-14.85-.31-1.27-.55-2.62-.14-3.87.41-1.24,1.69-2.29,2.96-2,.74.17,1.31.73,1.84,1.26,2.02,2.03,4.04,4.05,6.05,6.08-2.54-6.81-3.5-14.2-2.77-21.43.25-2.49,1.27-5.54,3.76-5.82,2.23-.25,3.9,1.98,4.85,4.02,2.28,4.9,3.39,10.34,3.23,15.74.8-2.68,1.61-5.4,3.12-7.76,1.51-2.36,3.83-4.34,6.59-4.79.93-.15,1.92-.12,2.79.26,2.16.95,2.91,3.67,2.79,6.02-.21,4.14-2.23,7.95-4.44,11.46-2.13,3.38-4.49,6.61-6.84,9.84,1.84-.97,3.43-2.48,5.45-2.97,2.02-.48,4.69.81,4.48,2.88-.1,1.04-.9,1.87-1.67,2.58-3.51,3.23-7.71,5.89-12.4,6.76-4.69.87-10.38.09-12.89-3.43Z"/>
            <path class="cls-4" d="M262.16,114.29c-16.22,13.95-27.29,33.77-30.65,54.9"/>
          </g>
        </g>
        <g>
          <path class="cls-11" d="M577.85,359.64c-4.42-10.73-18.76-13.57-30.04-10.83-11.28,2.74-21.37,9.34-32.71,11.8-15.15,3.28-30.78-1.12-46.25-1.98-15.48-.86-33.48,3.58-40.04,17.63-6.5,13.93,1.96,31.11,14.7,39.71,11.8,7.97,26.64,10.55,40.84,9.55,14.21-1,27.96-5.35,41.33-10.27,10.72-3.95,21.32-8.3,31.29-13.86,7.59-4.23,15.01-9.38,19.57-16.78,4.56-7.4,4.59-17,1.3-24.97Z"/>
          <path class="cls-23" d="M574.74,354.58c-3.73-2.92-8.1-5.03-12.71-6.12-.28-.07-.59-.12-.83.02-.55.32-.22,1.16.17,1.66,2.05,2.58,4.49,4.84,7.23,6.68-5.7-.31-11.49,1.18-16.33,4.21,5.81,2.85,12.44,4.02,18.88,3.34-1.37,3.09-2.52,6.27-3.44,9.52-.26.93-.48,2.02.1,2.79.79,1.04,2.4.77,3.62.31,4.03-1.5,8.13-4.41,8.31-8.69-.05-1.2-.1-2.4-.15-3.6,8.1-3.21,14.64-10.13,17.39-18.4.13-.39.25-.8.13-1.19-.11-.36-.4-.62-.69-.86-1.26-1.05-2.65-1.94-4.13-2.65-2.94,6.93-8.3,12.8-17.56,12.99Z"/>
        </g>
        <g>
          <path class="cls-23" d="M774.01,226.07c.27-9.45.54-18.89.81-28.34.04-1.29.1-2.67.82-3.74.72-1.07,2.36-1.64,3.34-.8.5.43.71,1.1.9,1.74.56,1.9,1.12,3.8,1.68,5.7,1.13-4.93,3.68-9.52,7.26-13.09.56-.56,1.25-1.13,2.03-1.05.86.08,1.45.88,1.85,1.64,2.06,3.9,2.11,8.81.11,12.75,2.06-1.44,4.25-2.93,6.76-3.14,2.51-.2,5.35,1.42,5.52,3.93.12,1.87-1.2,3.5-2.44,4.91-2.5,2.83-5,5.66-7.5,8.49,1.59,1.04,3.58-.45,4.86-1.84,6.73-7.33,12.99-15.09,18.71-23.23,2.79-3.97,5.77-8.28,10.36-9.84,1.03-.35,2.23-.53,3.14.07,3.15,2.07-2.49,7-.93,10.43,5.1-6.71,12.3-11.81,20.33-14.39,2.75-.89,6.82-.74,7.31,2.11.21,1.22-.44,2.42-1.1,3.46-3.69,5.82-8.77,10.76-14.69,14.28,6.4-2.01,13.12-4.04,19.7-2.75,2.95.58,6.2,2.4,6.4,5.4.25,3.77-4.2,5.85-7.84,6.85-6.62,1.84-13.25,3.68-19.87,5.51,2.23.34,4.45.83,6.62,1.46.81.24,1.66.52,2.2,1.18.95,1.17.4,3.05-.77,4.01-1.17.96-2.73,1.25-4.22,1.5-10.73,1.83-21.47,3.67-32.2,5.5,15.71,2.11,31.99-.19,46.5-6.56,3.04-1.33,6.08-2.86,9.38-3.15,3.3-.29,7.01,1.01,8.44,4-5.2,3.01-10.53,5.79-15.98,8.33,8.11-2.34,16.87-2.43,25.02-.24,2.09.56,4.23,1.31,5.77,2.84,1.54,1.52,2.32,4.01,1.31,5.92-1.09,2.07-3.7,2.73-6.01,3.12-7.39,1.22-14.89,1.79-22.37,1.69,5.29,1.24,10.97,2.72,14.4,6.92,1.67,2.05,2.49,5.45.43,7.11-.93.75-2.2.91-3.4,1.01-7.36.61-14.81.01-21.98-1.75,1.5.72,3.05,1.48,4.07,2.79s1.33,3.34.23,4.59c-1.13,1.29-3.14,1.22-4.84.97-7.12-1.08-13.95-3.55-20.72-6-8.71-3.16-17.42-6.32-26.14-9.48,6.98,4.08,13.95,8.15,20.93,12.23,4.12,2.41,8.34,4.9,11.34,8.61.71.88,1.37,2.07.87,3.08-.45.89-1.57,1.17-2.56,1.29-4.23.52-8.58.1-12.63-1.23,3.58,1.86,6.79,4.41,9.4,7.48,1.55,1.81,2.93,4.36,1.82,6.46-1.53,2.88-5.84,2.04-8.81.68-4.12-1.89-8.15-4-12.06-6.31,1.51,2.16,2.67,5,1.52,7.37-1.51,3.11-6.21,3.29-9.02,1.26-2.8-2.03-4.21-5.41-5.62-8.57-7.5-16.84-29.09-31-28.46-53.18Z"/>
          <path class="cls-2" d="M825.95,204.19c-28.93,24.8-62.39,44.3-98.22,57.25"/>
          <path class="cls-2" d="M849.22,238.15c-22.09,3.4-44.84,2.45-66.57-2.78"/>
          <path class="cls-2" d="M816.98,266.68c-13.5-8.38-26.03-18.32-37.27-29.18-.31-11.31,4.09-22.19,8.92-32.42"/>
        </g>
        <g>
          <path class="cls-16" d="M421.4,69.44c-4.65-5.69-13.96-4.66-20.07-.58-15,10.01-18.23,32.44-33.86,41.42-11.07,6.36-25.05,3.95-37.11-.27-4.9-1.71-11.04-3.45-14.72.21,2.81,7.99,10.82,12.79,18.41,16.55,15.68,7.77,33.67,14.06,50.44,9.05,9.23-2.75,17.16-8.69,24.41-15.03,7.67-6.7,15.08-14.35,18.27-24.02,3.18-9.67-.26-20.6-5.76-27.34Z"/>
          <path class="cls-14" d="M426.53,77.61c-2.79,4.38-7.41,7.55-12.51,8.55-.69.14-1.44.23-2.06-.11-.71-.38-1.05-1.22-1.21-2.02-.84-4.2,1.69-8.25,4.1-11.79-3.45-.49-6.9-.98-10.35-1.47-.86-.12-1.9-.4-2.1-1.24-.19-.81.55-1.53,1.26-1.98,3.42-2.2,7.75-2.91,11.62-2.14,7.28-6.6,11.47-16.49,11.13-26.31-.1-2.88-.65-5.94-2.62-8.04,2.22-.27,4.45-.55,6.67-.82,1.98,12.19.61,24.91-3.93,36.4-.46,1.16-.96,2.34-1,3.58-.09,2.65,2.22,5.47,1,7.39Z"/>
          <path class="cls-7" d="M367.72,110.19c-2.79,4.41-3.79,9.93-2.73,15.04"/>
        </g>
        <g>
          <path class="cls-17" d="M365.02,328.87c1.52,38.91-19.56,77.9-52.95,97.93-.53-1.83-.59-3.78-.19-5.64-20.13,16.99-48.09,20.58-74.39,22.01,2.92-8.99,6.53-17.76,10.78-26.2-1.99.57-3.99,1.13-5.98,1.7,4.03-18.82,13.79-36.38,27.65-49.74-4.88.7-9.66,2.14-14.11,4.27,15.51-22.43,40.13-38.36,66.94-43.32,13.9-2.57,28.16-2.3,42.24-1.01Z"/>
          <path class="cls-4" d="M249.05,434.5c22.05-16.37,43.42-33.65,64.03-51.79,6.45-5.68,12.84-11.44,18.9-17.54,8.17-8.21,15.74-16.99,23.1-25.93,12.03-14.64,23.48-29.73,34.93-44.82"/>
          <path class="cls-4" d="M290.69,425.49c10.08-13.48,18.15-28.45,23.87-44.28"/>
          <path class="cls-4" d="M322.95,410.28c10.64-21.4,21.42-44.38,28.86-67.09,0,0-39.26,4.24-65.75,15.11"/>
          <path class="cls-4" d="M322.25,373.56c-10.9,1.59-21.86,3.19-32.39,6.4-10.54,3.22-20.73,8.14-28.79,15.65"/>
        </g>
        <g>
          <path class="cls-14" d="M664.87,77.28c-6.27-8.29-13.76-15.59-21.54-22.49-2.58-2.29-5.26-4.57-8.45-5.86-3.2-1.29-7.05-1.44-9.93.45-3.8,2.48-4.85,7.8-3.68,12.18,1.18,4.38,4.1,8.04,7.13,11.4-3.22,2.33-6.45,4.66-9.31,7.33-3-5.3-4.93-11.21-5.62-17.26-.84-7.36.57-15.7,6.39-20.27,4.99-3.92,12.15-4.1,18.14-1.97,5.98,2.12,11.03,6.22,15.79,10.13l19.45,18.79-8.36,7.56Z"/>
          <path class="cls-24" d="M785.44,123.1c.81,5.52,1.47,11.16.51,16.66-.96,5.5-3.74,10.91-8.48,13.86-4.14,2.57-9.21,3-14.06,3.36.6,10.14-2.65,19.64-9.35,25.39-6.7,5.75-16.58,7.52-24.86,4.45-1.28-.48-2.59-1.07-3.96-.96-2.84.24-4.45,3.24-6.39,5.33-4.56,4.93-12.51,5.31-18.7,2.72-6.19-2.59-11.03-7.55-15.68-12.38-7.58-7.87-15.16-15.73-22.74-23.6-6.71-6.96-13.5-14.02-18.26-22.44-4.76-8.42-7.35-18.48-5.03-27.87,2.32-9.39,10.36-17.66,20.01-18.31-2.66-14.07,9.91-28.94,25.12-28.56,2.76-13.72,18.03-22.31,31.98-21.24,13.95,1.08,26.29,9.69,35.9,19.87,16.75,17.75,30.49,39.89,33.99,63.69Z"/>
          <path class="cls-8" d="M662.74,98.12c16.45,28.49,33.42,57.59,58.65,78.69"/>
          <path class="cls-8" d="M690.04,65.37c30.54,23.81,55.86,54.27,73.67,88.65"/>
        </g>
        <g>
          <path class="cls-10" d="M722.32,473.87c30.43-1.85,54.21-26.78,58.3-58.97,2.15-16.95-2.64-34.96-14.07-47.66-12.44-13.83-32-20.41-50.49-18.39-18.49,2.02-35.67,12.14-47.64,26.37-4.67,5.56-8.65,11.82-10.81,18.75-3.72,11.96-1.78,24.96,1.6,37.03,5.99,21.4,22.76,35.91,44.46,41.15,6.41,1.55,12.66,2.08,18.65,1.72Z"/>
          <path class="cls-9" d="M694.1,355.32c-8.62-22.2-23-42.14-41.36-57.31"/>
          <path class="cls-23" d="M686.2,337.72c-7.23-15.96-5.22-35.72,5.06-49.91,1.42-1.96,3.6-4.03,5.92-3.32.96.29,1.72,1.02,2.41,1.75,5.9,6.3,9.4,14.8,9.67,23.43.27,8.63-2.71,17.32-8.2,23.98-3.13,3.79-7.91,7.13-14.86,4.07Z"/>
          <path class="cls-23" d="M686.37,339.67c-10.92-7.47-24.04-11.69-37.27-12-3.96-.09-7.99.17-11.71,1.51-.58.21-1.17.46-1.55.95-.45.59-.49,1.38-.47,2.12.26,12.53,10.61,24.08,23.03,25.7,12.42,1.62,25.39-6.88,27.97-18.29Z"/>
          <path class="cls-3" d="M760.48,437.49c5.31-12.46,6.22-26.74,2.56-39.77-3.67-13.04-11.89-24.74-22.91-32.61"/>
        </g>
        <g>
          <path class="cls-22" d="M561.05,86.64c-1.69-13.42-10.22-25.71-22.03-32.3-11.8-6.6-26.55-7.48-39.2-2.69-1.27.48-2.56,1.03-3.92,1.02-3.11-.01-6.38-2.81-8.98-1.1-.23,3.2,1.39,6.47,3.19,8.61-1.36,15.95,7.99,32.12,22.21,39.47,14.58,7.53,33.8,5.43,45.88-5.67,1.22,1.15,2.69,2.39,4.36,2.19,2.22-.26,3.36-3.1,2.67-5.23-.7-2.13-2.59-3.61-4.18-4.29Z"/>
          <path class="cls-9" d="M508.31,58.16c16.32-.51,32.67,7.69,42.01,21.09"/>
        </g>
      </g>
    </g>
  </g>
</svg>